# xmcd
#
# Track frame offsets:
#	150
#	13760
#	27202
#	39510
#	54265
#	66972
#	78162
#	91672
#	106070
#	118855
#	131492
#	143357
#	154917
#	164130
#	174552
#	185052
#	196520
#	208512
#
# Disc length: 2941 seconds
#
# Revision: 1
# Processed by: cddbd v1.5.2PL0 Copyright (c) Steve Scherf et al.
# Submitted via: EasyCDDAExtractor 11.1.0.1
#
DISCID=e70b7b12
DTITLE=Various Artist - Blow, Brother Blow!: 18 Blues Harmonica Classics
DYEAR=1993
DGENRE=Blues
TTITLE0=Sonny Boy Williamson 1 - Good Morning Schoolgirl
TTITLE1=Sonny Boy Williamson 1 - Sugar Mama Blues
TTITLE2=Little Walter - Juke
TTITLE3=Little Walter - Blue Light
TTITLE4=Walter Horton - Back Track
TTITLE5=Walter Horton - Little Walter's Boogie
TTITLE6=Joe Hill Louis And Walter Horton - Easy
TTITLE7=Willie Nix And James Cotton - Tiger Man
TTITLE8=Muddy Waters And James Cotton - Baker Shop Boogie
TTITLE9=Hot Shot Love - I Live The Life I Love (I Love The Life I Live)
TTITLE10=Hot Shot Love - Wolf Call Boogie
TTITLE11=Doctor Ross - Juke Box Boogie
TTITLE12=Snooky Pryor - You Tried To Ruin Me
TTITLE13=Billy Boy Arnold - Kissing At Midnight
TTITLE14=Jimmy Reed - I Ain't Got You
TTITLE15=Jimmy Reed - Signals Of Love
TTITLE16=Sonny Boy Williamson 2 - Ninety Nine
TTITLE17=Sonny Boy Williamson 2 - Trust My Baby
EXTD=Charly Blues Masterworks Vol.32 CD BM 32, 1993
EXTT0=Sonny Boy Williamson I
EXTT1=Sonny Boy Williamson I
EXTT2=Little Walter
EXTT3=Little Walter
EXTT4=Little Walter
EXTT5=Walter Horton
EXTT6=Walter Horton
EXTT7=Joe Hill Louis, Walter Horton
EXTT8=Willie Nix, James Cotton
EXTT9=Muddy Waters, James Cotton
EXTT10=Hot Shot Love
EXTT11=Doctor Ross
EXTT12=Snooky Pryor
EXTT13=Billy Boy Arnold
EXTT14=Jimmy Reed
EXTT15=Jimmy Reed
EXTT16=Sonny Boy Williamson II
EXTT17=Sonny Boy Williamson II
PLAYORDER=
